<svg width="25" height="15" viewBox="0 0 25 15" fill="none" xmlns="http://www.w3.org/2000/svg">
<g clip-path="url(#clip0_25_25707)">
<path d="M25 0H-1V15.1667H25V0Z" fill="white"/>
<path d="M16.3335 5.49405L24.9228 0.696424V0H24.3811L14.5537 5.49405H16.3335Z" fill="#BD0034"/>
<path d="M15.9463 9.98215L24.9225 15.0119V14.006L17.726 9.98215H15.9463Z" fill="#BD0034"/>
<path d="M-1 1.16072L6.66073 5.49406H8.44048L-1 0.154755V1.16072Z" fill="#BD0034"/>
<path d="M8.05358 9.98215L-1 15.0893V15.1667H0.625004L9.83333 9.98215H8.05358Z" fill="#BD0034"/>
<path d="M23.1429 0H14.0894V5.10715L23.1429 0Z" fill="#1A237B"/>
<path d="M10.0653 0H1.01172L10.0653 5.10715V0Z" fill="#1A237B"/>
<path d="M24.9224 5.49404V2.0119L18.7319 5.49404H24.9224Z" fill="#1A237B"/>
<path d="M24.9224 13.3869V9.98215H18.7319L24.9224 13.3869Z" fill="#1A237B"/>
<path d="M1.47607 15.1667H10.0654V10.369L1.47607 15.1667Z" fill="#1A237B"/>
<path d="M14.0894 15.1667H22.6013L14.0894 10.369V15.1667Z" fill="#1A237B"/>
<path d="M-1 9.98215V13.5417L5.34525 9.98215H-1Z" fill="#1A237B"/>
<path d="M-1 5.49406H5.34525L-1 1.85715V5.49406Z" fill="#1A237B"/>
<path d="M10.8393 0V6.34522H-1V9.05356H10.8393V15.1667H13.2381V9.05356H24.9226V6.34522H13.2381V0H10.8393Z" fill="#BD0034"/>
</g>
<defs>
<clipPath id="clip0_25_25707">
<rect width="25" height="15" rx="2" fill="white"/>
</clipPath>
</defs>
</svg>
