<svg width="25" height="15" viewBox="0 0 25 15" fill="none" xmlns="http://www.w3.org/2000/svg">
<g clip-path="url(#clip0_25_25568)">
<path d="M25.7725 0H0V4.83233H25.7725V0Z" fill="#4497B1"/>
<path d="M25.7725 4.83234H0V5.13917H25.7725V4.83234Z" fill="#BC0030"/>
<path d="M25.7725 5.13918H0V9.97151H25.7725V5.13918Z" fill="white"/>
<path d="M25.7725 9.89479H0V10.2016H25.7725V9.89479Z" fill="#BC0030"/>
<path d="M25.7725 10.2016H0V15.034H25.7725V10.2016Z" fill="#50B63F"/>
<path d="M5.98299 2.45454C5.98299 3.45169 5.13926 4.21872 4.21881 4.21872C3.22167 4.21872 2.45459 3.37499 2.45459 2.45454C2.45459 1.45739 3.29837 0.613632 4.21881 0.613632C5.21596 0.613632 5.98299 1.45739 5.98299 2.45454Z" fill="white"/>
<path d="M6.51981 2.45455C6.51981 3.29829 5.82948 3.98862 4.98574 3.98862C4.14199 3.98862 3.45166 3.29829 3.45166 2.45455C3.45166 1.61081 4.14199 0.920471 4.98574 0.920471C5.82948 0.920471 6.51981 1.61081 6.51981 2.45455Z" fill="#4497B1"/>
<path d="M8.74417 0.613647L8.66748 0.997167H8.8209L8.74417 0.613647Z" fill="white"/>
<path d="M8.74417 0.613647L8.89758 0.997167H8.66748L8.74417 0.613647Z" fill="white"/>
<path d="M9.12766 0.843765H8.74414V1.07387L9.12766 0.843765Z" fill="white"/>
<path d="M9.12768 0.843765L8.8209 1.07387L8.66748 0.920474L9.12768 0.843765Z" fill="white"/>
<path d="M8.4375 0.843765L8.74429 1.07387L8.82102 0.920474L8.4375 0.843765Z" fill="white"/>
<path d="M8.4375 0.843765H8.74429V1.07387L8.4375 0.843765Z" fill="white"/>
<path d="M8.97427 1.30399L8.8209 0.920471L8.66748 0.997156L8.97427 1.30399Z" fill="white"/>
<path d="M8.97427 1.30399L8.66748 1.07386L8.74417 0.920471L8.97427 1.30399Z" fill="white"/>
<path d="M8.51416 1.30399L8.82099 1.07386L8.74426 0.920471L8.51416 1.30399Z" fill="white"/>
<path d="M8.51416 1.30399L8.66758 0.920471L8.82099 0.997156L8.51416 1.30399Z" fill="white"/>
<path d="M10.2017 0.613647L10.125 0.997167H10.2784L10.2017 0.613647Z" fill="white"/>
<path d="M10.2017 0.613647L10.2784 0.997167H10.125L10.2017 0.613647Z" fill="white"/>
<path d="M10.5084 0.843765H10.2017V1.07387L10.5084 0.843765Z" fill="white"/>
<path d="M10.5085 0.843765L10.2784 1.07387L10.125 0.920474L10.5085 0.843765Z" fill="white"/>
<path d="M9.89502 0.843765L10.1251 1.07387L10.2785 0.920474L9.89502 0.843765Z" fill="white"/>
<path d="M9.89502 0.843765H10.2019V1.07387L9.89502 0.843765Z" fill="white"/>
<path d="M10.4318 1.30399L10.2784 0.920471L10.125 0.997156L10.4318 1.30399Z" fill="white"/>
<path d="M10.4318 1.30399L10.125 1.07386L10.2017 0.920471L10.4318 1.30399Z" fill="white"/>
<path d="M9.97168 1.30399L10.2785 1.07386L10.2018 0.920471L9.97168 1.30399Z" fill="white"/>
<path d="M9.97168 1.30399L10.125 0.920471L10.2785 0.997156L9.97168 1.30399Z" fill="white"/>
<path d="M11.6592 0.613647L11.5059 0.997167H11.736L11.6592 0.613647Z" fill="white"/>
<path d="M11.6592 0.613647L11.7359 0.997167H11.5825L11.6592 0.613647Z" fill="white"/>
<path d="M11.966 0.843765H11.6592V1.07387L11.966 0.843765Z" fill="white"/>
<path d="M11.966 0.843765L11.6592 1.07387L11.5825 0.920474L11.966 0.843765Z" fill="white"/>
<path d="M11.2754 0.843765L11.5822 1.07387L11.6589 0.920474L11.2754 0.843765Z" fill="white"/>
<path d="M11.2754 0.843765H11.6589V1.07387L11.2754 0.843765Z" fill="white"/>
<path d="M11.8894 1.30399L11.7359 0.920471L11.5825 0.997156L11.8894 1.30399Z" fill="white"/>
<path d="M11.8894 1.30399L11.5825 1.07386L11.6592 0.920471L11.8894 1.30399Z" fill="white"/>
<path d="M11.4292 1.30399L11.736 1.07386L11.5826 0.920471L11.4292 1.30399Z" fill="white"/>
<path d="M11.4292 1.30399L11.5059 0.920471L11.736 0.997156L11.4292 1.30399Z" fill="white"/>
<path d="M7.28718 2.07103L7.21045 2.37784L7.36387 2.45455L7.28718 2.07103Z" fill="white"/>
<path d="M7.28711 2.07103L7.44048 2.37784L7.28711 2.45455V2.07103Z" fill="white"/>
<path d="M7.67063 2.30113H7.28711V2.45455L7.67063 2.30113Z" fill="white"/>
<path d="M7.67063 2.30113L7.36379 2.53123L7.28711 2.37784L7.67063 2.30113Z" fill="white"/>
<path d="M6.97998 2.30113L7.28681 2.53123L7.3635 2.37784L6.97998 2.30113Z" fill="white"/>
<path d="M6.97998 2.30113H7.3635V2.45455L6.97998 2.30113Z" fill="white"/>
<path d="M7.51728 2.68465L7.44055 2.37784L7.21045 2.45455L7.51728 2.68465Z" fill="white"/>
<path d="M7.51728 2.68465L7.21045 2.53123L7.36387 2.37784L7.51728 2.68465Z" fill="white"/>
<path d="M7.13379 2.68465L7.36389 2.53123L7.28721 2.37784L7.13379 2.68465Z" fill="white"/>
<path d="M7.13379 2.68465L7.21047 2.37784L7.36389 2.45455L7.13379 2.68465Z" fill="white"/>
<path d="M8.74417 2.07103L8.66748 2.37784L8.8209 2.45455L8.74417 2.07103Z" fill="white"/>
<path d="M8.74417 2.07103L8.89758 2.37784L8.66748 2.45455L8.74417 2.07103Z" fill="white"/>
<path d="M9.12766 2.30113H8.74414V2.45455L9.12766 2.30113Z" fill="white"/>
<path d="M9.12768 2.30113L8.8209 2.53123L8.66748 2.37784L9.12768 2.30113Z" fill="white"/>
<path d="M8.4375 2.30113L8.74429 2.53123L8.82102 2.37784L8.4375 2.30113Z" fill="white"/>
<path d="M8.4375 2.30113H8.74429V2.45455L8.4375 2.30113Z" fill="white"/>
<path d="M8.97427 2.68465L8.8209 2.37784L8.66748 2.45455L8.97427 2.68465Z" fill="white"/>
<path d="M8.97427 2.68465L8.66748 2.53123L8.74417 2.37784L8.97427 2.68465Z" fill="white"/>
<path d="M8.51416 2.68465L8.82099 2.53123L8.74426 2.37784L8.51416 2.68465Z" fill="white"/>
<path d="M8.51416 2.68465L8.66758 2.37784L8.82099 2.45455L8.51416 2.68465Z" fill="white"/>
<path d="M10.2017 2.07103L10.125 2.37784L10.2784 2.45455L10.2017 2.07103Z" fill="white"/>
<path d="M10.2017 2.07103L10.2784 2.37784L10.125 2.45455L10.2017 2.07103Z" fill="white"/>
<path d="M10.5084 2.30113H10.2017V2.45455L10.5084 2.30113Z" fill="white"/>
<path d="M10.5085 2.30113L10.2784 2.53123L10.125 2.37784L10.5085 2.30113Z" fill="white"/>
<path d="M9.89502 2.30113L10.1251 2.53123L10.2785 2.37784L9.89502 2.30113Z" fill="white"/>
<path d="M9.89502 2.30113H10.2019V2.45455L9.89502 2.30113Z" fill="white"/>
<path d="M10.4318 2.68465L10.2784 2.37784L10.125 2.45455L10.4318 2.68465Z" fill="white"/>
<path d="M10.4318 2.68465L10.125 2.53123L10.2017 2.37784L10.4318 2.68465Z" fill="white"/>
<path d="M9.97168 2.68465L10.2785 2.53123L10.2018 2.37784L9.97168 2.68465Z" fill="white"/>
<path d="M9.97168 2.68465L10.125 2.37784L10.2785 2.45455L9.97168 2.68465Z" fill="white"/>
<path d="M11.6592 2.07103L11.5059 2.37784L11.736 2.45455L11.6592 2.07103Z" fill="white"/>
<path d="M11.6592 2.07103L11.7359 2.37784L11.5825 2.45455L11.6592 2.07103Z" fill="white"/>
<path d="M11.966 2.30113H11.6592V2.45455L11.966 2.30113Z" fill="white"/>
<path d="M11.966 2.30113L11.6592 2.53123L11.5825 2.37784L11.966 2.30113Z" fill="white"/>
<path d="M11.2754 2.30113L11.5822 2.53123L11.6589 2.37784L11.2754 2.30113Z" fill="white"/>
<path d="M11.2754 2.30113H11.6589V2.45455L11.2754 2.30113Z" fill="white"/>
<path d="M11.8894 2.68465L11.7359 2.37784L11.5825 2.45455L11.8894 2.68465Z" fill="white"/>
<path d="M11.8894 2.68465L11.5825 2.53123L11.6592 2.37784L11.8894 2.68465Z" fill="white"/>
<path d="M11.4292 2.68465L11.736 2.53123L11.5826 2.37784L11.4292 2.68465Z" fill="white"/>
<path d="M11.4292 2.68465L11.5059 2.37784L11.736 2.45455L11.4292 2.68465Z" fill="white"/>
<path d="M5.9063 3.5284L5.75293 3.83521L5.9063 3.91192V3.5284Z" fill="white"/>
<path d="M5.90627 3.5284L5.98301 3.83521L5.82959 3.91192L5.90627 3.5284Z" fill="white"/>
<path d="M6.21311 3.7585H5.82959V3.91192L6.21311 3.7585Z" fill="white"/>
<path d="M6.21311 3.7585L5.90627 3.98862L5.82959 3.83521L6.21311 3.7585Z" fill="white"/>
<path d="M5.52295 3.7585L5.82978 3.98862L5.90647 3.83521L5.52295 3.7585Z" fill="white"/>
<path d="M5.52295 3.7585H5.90647V3.91192L5.52295 3.7585Z" fill="white"/>
<path d="M6.05969 4.14203L5.98301 3.83522H5.82959L6.05969 4.14203Z" fill="white"/>
<path d="M6.05969 4.14202L5.82959 3.91192L5.90627 3.7585L6.05969 4.14202Z" fill="white"/>
<path d="M5.67627 4.14202L5.9831 3.91192L5.82969 3.7585L5.67627 4.14202Z" fill="white"/>
<path d="M5.67627 4.14203L5.753 3.83522H5.90637L5.67627 4.14203Z" fill="white"/>
<path d="M7.28718 3.5284L7.21045 3.83521L7.36387 3.91192L7.28718 3.5284Z" fill="white"/>
<path d="M7.28711 3.5284L7.44048 3.83521L7.28711 3.91192V3.5284Z" fill="white"/>
<path d="M7.67063 3.7585H7.28711V3.91192L7.67063 3.7585Z" fill="white"/>
<path d="M7.67063 3.7585L7.36379 3.98862L7.28711 3.83521L7.67063 3.7585Z" fill="white"/>
<path d="M6.97998 3.7585L7.28681 3.98862L7.3635 3.83521L6.97998 3.7585Z" fill="white"/>
<path d="M6.97998 3.7585H7.3635V3.91192L6.97998 3.7585Z" fill="white"/>
<path d="M7.51728 4.14203L7.44055 3.83522H7.21045L7.51728 4.14203Z" fill="white"/>
<path d="M7.51728 4.14202L7.21045 3.91192L7.36387 3.7585L7.51728 4.14202Z" fill="white"/>
<path d="M7.13379 4.14202L7.36389 3.91192L7.28721 3.7585L7.13379 4.14202Z" fill="white"/>
<path d="M7.13379 4.14203L7.21047 3.83522H7.36389L7.13379 4.14203Z" fill="white"/>
<path d="M8.74417 3.5284L8.66748 3.83521L8.8209 3.91192L8.74417 3.5284Z" fill="white"/>
<path d="M8.74417 3.5284L8.89758 3.83521L8.66748 3.91192L8.74417 3.5284Z" fill="white"/>
<path d="M9.12766 3.7585H8.74414V3.91192L9.12766 3.7585Z" fill="white"/>
<path d="M9.12768 3.7585L8.8209 3.98862L8.66748 3.83521L9.12768 3.7585Z" fill="white"/>
<path d="M8.4375 3.7585L8.74429 3.98862L8.82102 3.83521L8.4375 3.7585Z" fill="white"/>
<path d="M8.4375 3.7585H8.74429V3.91192L8.4375 3.7585Z" fill="white"/>
<path d="M8.97427 4.14203L8.8209 3.83522H8.66748L8.97427 4.14203Z" fill="white"/>
<path d="M8.97427 4.14202L8.66748 3.91192L8.74417 3.7585L8.97427 4.14202Z" fill="white"/>
<path d="M8.51416 4.14202L8.82099 3.91192L8.74426 3.7585L8.51416 4.14202Z" fill="white"/>
<path d="M8.51416 4.14203L8.66758 3.83522H8.82099L8.51416 4.14203Z" fill="white"/>
<path d="M10.2017 3.5284L10.125 3.83521L10.2784 3.91192L10.2017 3.5284Z" fill="white"/>
<path d="M10.2017 3.5284L10.2784 3.83521L10.125 3.91192L10.2017 3.5284Z" fill="white"/>
<path d="M10.5084 3.7585H10.2017V3.91192L10.5084 3.7585Z" fill="white"/>
<path d="M10.5085 3.7585L10.2784 3.98862L10.125 3.83521L10.5085 3.7585Z" fill="white"/>
<path d="M9.89502 3.7585L10.1251 3.98862L10.2785 3.83521L9.89502 3.7585Z" fill="white"/>
<path d="M9.89502 3.7585H10.2019V3.91192L9.89502 3.7585Z" fill="white"/>
<path d="M10.4318 4.14203L10.2784 3.83522H10.125L10.4318 4.14203Z" fill="white"/>
<path d="M10.4318 4.14202L10.125 3.91192L10.2017 3.7585L10.4318 4.14202Z" fill="white"/>
<path d="M9.97168 4.14202L10.2785 3.91192L10.2018 3.7585L9.97168 4.14202Z" fill="white"/>
<path d="M9.97168 4.14203L10.125 3.83522H10.2785L9.97168 4.14203Z" fill="white"/>
<path d="M11.6592 3.5284L11.5059 3.83521L11.736 3.91192L11.6592 3.5284Z" fill="white"/>
<path d="M11.6592 3.5284L11.7359 3.83521L11.5825 3.91192L11.6592 3.5284Z" fill="white"/>
<path d="M11.966 3.7585H11.6592V3.91192L11.966 3.7585Z" fill="white"/>
<path d="M11.966 3.7585L11.6592 3.98862L11.5825 3.83521L11.966 3.7585Z" fill="white"/>
<path d="M11.2754 3.7585L11.5822 3.98862L11.6589 3.83521L11.2754 3.7585Z" fill="white"/>
<path d="M11.2754 3.7585H11.6589V3.91192L11.2754 3.7585Z" fill="white"/>
<path d="M11.8894 4.14203L11.7359 3.83522H11.5825L11.8894 4.14203Z" fill="white"/>
<path d="M11.8894 4.14202L11.5825 3.91192L11.6592 3.7585L11.8894 4.14202Z" fill="white"/>
<path d="M11.4292 4.14202L11.736 3.91192L11.5826 3.7585L11.4292 4.14202Z" fill="white"/>
<path d="M11.4292 4.14203L11.5059 3.83522H11.736L11.4292 4.14203Z" fill="white"/>
</g>
<defs>
<clipPath id="clip0_25_25568">
<rect width="25" height="15" rx="2" fill="white"/>
</clipPath>
</defs>
</svg>
